<svg width="100" height="100" viewBox="0 0 100 100" fill="none" xmlns="http://www.w3.org/2000/svg">
<path d="M90.4169 50C90.4169 72.5 72.0835 90.4167 50.0002 90.4167C27.9168 90.4167 9.5835 72.5 9.5835 50C9.5835 27.5 27.5002 9.58331 50.0002 9.58331C72.5002 9.58331 90.4169 27.5 90.4169 50ZM49.5835 69.1667C49.5835 68.3333 49.1668 67.9167 48.3335 67.5C45.8335 66.6667 43.3335 66.6666 41.2502 64.5833C40.8335 63.75 40.8335 62.9166 40.4168 62.0833C39.5835 61.25 37.5002 60.8333 36.2502 60.4166C34.5835 60.4166 32.9168 60.4166 30.8335 60.4166C30.0002 60.4166 28.7502 60.4166 27.9168 60.4166C26.6668 60 25.8335 58.3333 25.0002 57.0833C25.0002 56.6666 25.0002 55.8333 24.1668 55.8333C23.3335 55.4166 22.5002 56.25 21.6668 55.8333C21.2502 55.4166 21.2502 55 21.2502 54.5833C21.2502 53.3333 22.0835 52.0833 22.9168 51.25C24.1668 50.4166 25.4168 51.6666 26.6668 51.6666C27.0835 51.6666 27.0835 51.6666 27.5002 52.0833C28.7502 52.5 29.1668 54.1666 29.1668 55.4166C29.1668 55.8333 29.1668 56.25 29.1668 56.25C29.1668 56.6666 29.5835 56.6666 30.0002 56.6666C30.4168 54.5833 30.4168 52.5 30.8335 50.4166C30.8335 47.9166 33.3335 45.4166 35.4168 44.5833C36.2502 44.1666 36.6668 45 37.5002 44.5833C40.0002 43.75 46.2502 41.25 45.0002 37.9166C44.1668 35 41.6668 32.0833 38.3335 32.5C37.5002 32.9166 37.0835 33.3333 36.2502 33.75C35.0002 34.5833 32.5002 37.0833 31.2502 37.0833C29.1668 36.6666 29.1668 33.75 29.5835 32.5C30.0002 30.8333 33.7502 25.4166 36.2502 26.25C36.6668 26.6666 37.5002 27.5 37.9168 27.9166C38.7502 28.3333 40.0002 28.3333 41.2502 28.3333C41.6668 28.3333 42.0835 28.3333 42.5002 27.9166C42.9168 27.5 42.9168 27.5 42.9168 27.0833C42.9168 25.8333 41.6668 24.5833 40.8335 23.75C40.0002 22.9166 38.7502 22.0833 37.5002 21.6666C33.3335 20.4166 26.6668 22.0833 23.3335 25C20.0002 27.9166 17.5002 32.9166 15.8335 37.0833C15.0002 39.5833 14.1668 42.9166 13.7502 45.8333C13.3335 47.9166 12.9168 49.5833 14.1668 51.6666C15.4168 54.1666 17.9168 56.6666 20.4168 58.3333C22.0835 59.5833 25.4168 59.5833 27.0835 61.6666C28.3335 63.3333 27.9168 65.4167 27.9168 67.5C27.9168 70 29.5835 72.0833 30.4168 74.1666C30.8335 75.4166 31.2502 77.0833 31.6668 78.3333C31.6668 78.75 32.0835 81.25 32.0835 81.6667C34.5835 82.9167 36.6668 84.1667 39.5835 85C40.0002 85 41.6668 82.5 41.6668 82.0833C42.9168 80.8333 43.7502 79.1666 45.0002 78.3333C45.8335 77.9166 46.6668 77.5 47.5002 76.6667C48.3335 75.8333 48.7502 74.1666 49.1668 72.9166C49.5835 72.0833 50.0002 70.4167 49.5835 69.1667ZM50.4168 30.8333C50.8335 30.8333 51.2502 30.4166 52.0835 30C53.3335 29.1666 54.5835 27.9166 55.8335 27.0833C57.0835 26.25 58.3335 25 59.1668 24.1666C60.4168 23.3333 61.2502 21.6666 61.6668 20.4166C62.0835 19.5833 63.3335 17.9166 62.9168 16.6666C62.5002 15.8333 60.4168 15.4166 59.5835 15C56.2502 14.1666 53.3335 13.75 50.0002 13.75C48.7502 13.75 47.0835 14.1666 46.6668 15.4166C46.2502 17.5 47.9168 17.0833 49.5835 17.5C49.5835 17.5 50.0002 20.8333 50.0002 21.25C50.4168 23.3333 49.1668 24.5833 49.1668 26.6666C49.1668 27.9166 49.1668 30 50.0002 30.8333H50.4168ZM85.4169 60C85.8335 59.1666 85.8335 57.9166 86.2502 57.0833C86.6669 55 86.6669 52.9166 86.6669 50.8333C86.6669 46.6666 86.2502 42.5 85.0002 38.75C84.1669 37.5 83.7502 36.25 83.3335 35C82.5002 32.9166 81.2502 30.8333 79.5835 29.1666C77.9169 27.0833 75.8335 21.25 72.0835 22.9166C70.8335 23.3333 70.0002 25 69.1668 25.8333C68.3335 27.0833 67.5002 28.3333 66.6668 29.5833C66.2502 30 65.8335 30.8333 66.2502 31.25C66.2502 31.6666 66.6668 31.6666 67.0835 31.6666C67.9168 32.0833 68.3335 32.0833 69.1668 32.5C69.5835 32.5 70.0002 32.9166 69.5835 33.3333C69.5835 33.3333 69.5835 33.75 69.1668 33.75C67.0835 35.8333 65.0002 37.5 62.9168 39.5833C62.5002 40 62.0835 40.8333 62.0835 41.25C62.0835 41.6666 62.5002 41.6666 62.5002 42.0833C62.5002 42.5 62.0835 42.5 61.6668 42.9166C60.8335 43.3333 60.0002 43.75 59.5835 44.1666C59.1668 45 59.5835 46.25 59.1668 47.0833C58.7502 49.1666 57.5002 50.8333 56.6668 52.9166C55.8335 54.1666 55.4168 55.4166 54.5835 56.6666C54.5835 58.3333 54.1668 59.5833 55.0002 60.8333C57.0835 63.75 60.8335 62.0833 63.7502 63.3333C64.5835 63.75 65.4168 63.75 65.8335 64.5833C67.0835 65.8333 67.0835 67.9167 67.5002 69.1667C67.9169 70.8333 68.3335 72.5 69.1668 74.1666C69.5835 76.25 70.4168 78.3333 70.8335 80C74.5835 77.0833 77.9168 73.75 80.4169 69.5833C82.9169 66.6667 84.1669 63.3333 85.4169 60Z" fill="#4F4C4C"/>
<path d="M50 8.33331C27.0834 8.33331 8.33337 27.0833 8.33337 50C8.33337 72.9166 27.0834 91.6667 50 91.6667C72.9167 91.6667 91.6667 72.9166 91.6667 50C91.6667 27.0833 72.9167 8.33331 50 8.33331ZM50 85C30.8334 85 15 69.1666 15 50C15 30.8333 30.8334 15 50 15C69.1667 15 85 30.8333 85 50C85 69.1666 69.1667 85 50 85Z" fill="#4F4C4C"/>
</svg>
