<svg width="36" height="36" viewBox="0 0 36 36" fill="none" xmlns="http://www.w3.org/2000/svg">
<path d="M31.5 32.625C32.4304 32.625 33.1875 31.8679 33.1875 30.9375C33.1875 30.0071 32.4304 29.25 31.5 29.25C30.5696 29.25 29.8125 30.0071 29.8125 30.9375C29.8125 31.8679 30.5696 32.625 31.5 32.625ZM31.5 30.375C31.8099 30.375 32.0625 30.627 32.0625 30.9375C32.0625 31.248 31.8099 31.5 31.5 31.5C31.1901 31.5 30.9375 31.248 30.9375 30.9375C30.9375 30.627 31.1901 30.375 31.5 30.375Z" fill="#4F4C4C"/>
<path d="M27 32.625C27.9304 32.625 28.6875 31.8679 28.6875 30.9375C28.6875 30.0071 27.9304 29.25 27 29.25C26.0696 29.25 25.3125 30.0071 25.3125 30.9375C25.3125 31.8679 26.0696 32.625 27 32.625ZM27 30.375C27.3099 30.375 27.5625 30.627 27.5625 30.9375C27.5625 31.248 27.3099 31.5 27 31.5C26.6901 31.5 26.4375 31.248 26.4375 30.9375C26.4375 30.627 26.6901 30.375 27 30.375Z" fill="#4F4C4C"/>
<path d="M22.5 32.625C23.4304 32.625 24.1875 31.8679 24.1875 30.9375C24.1875 30.0071 23.4304 29.25 22.5 29.25C21.5696 29.25 20.8125 30.0071 20.8125 30.9375C20.8125 31.8679 21.5696 32.625 22.5 32.625ZM22.5 30.375C22.8099 30.375 23.0625 30.627 23.0625 30.9375C23.0625 31.248 22.8099 31.5 22.5 31.5C22.1901 31.5 21.9375 31.248 21.9375 30.9375C21.9375 30.627 22.1901 30.375 22.5 30.375Z" fill="#4F4C4C"/>
<path d="M14.8562 24.1875H15.1875H35.4375V20.961C35.4375 19.2167 34.2669 17.6619 32.5912 17.1776L32.0625 17.0252V7.3125C32.0625 3.59044 29.0346 0.5625 25.3125 0.5625C21.5904 0.5625 18.5625 3.59044 18.5625 7.3125V17.0252L18.0338 17.1776C17.8279 17.2367 17.6299 17.3188 17.4364 17.4111C17.4217 13.7014 14.4006 10.6875 10.6875 10.6875C6.96544 10.6875 3.9375 13.7154 3.9375 17.4375V21.9375C3.9375 23.1784 4.94662 24.1875 6.1875 24.1875H6.51881C6.81019 24.9047 7.28044 25.5296 7.875 26.0072V27.1395L3.40875 28.4276C1.73306 28.9114 0.5625 30.4667 0.5625 32.211V35.4375H20.25H33.75C34.6804 35.4375 35.4375 34.6804 35.4375 33.75V28.125C35.4375 27.1946 34.6804 26.4375 33.75 26.4375H32.8579L30.9375 24.5171L29.0171 26.4375H20.25C19.3196 26.4375 18.5625 27.1946 18.5625 28.125V28.6605C18.3696 28.5683 18.1716 28.4867 17.9662 28.4276L13.5 27.1395V26.0072C14.0946 25.5296 14.5648 24.9047 14.8562 24.1875ZM15.1487 23.0625C15.1718 22.878 15.1875 22.6907 15.1875 22.5V20.8125C15.8079 20.8125 16.3125 21.3171 16.3125 21.9375C16.3125 22.5579 15.8079 23.0625 15.1875 23.0625H15.1487ZM20.25 17.7092L22.6041 17.0297C22.8713 18.0349 23.6739 18.8201 24.6926 19.0508C24.4688 20.0571 23.5727 20.8125 22.5 20.8125C21.2591 20.8125 20.25 19.8034 20.25 18.5625V17.7092ZM25.3125 14.625C23.4512 14.625 21.9375 13.1113 21.9375 11.25V9C21.9375 8.6895 22.1901 8.4375 22.5 8.4375H28.125C28.4349 8.4375 28.6875 8.6895 28.6875 9V11.25C28.6875 13.1113 27.1738 14.625 25.3125 14.625ZM23.625 15.4187C24.1464 15.6307 24.7157 15.75 25.3125 15.75C25.9093 15.75 26.4786 15.6307 27 15.4187V16.3125C27 17.2429 26.2429 18 25.3125 18C24.3821 18 23.625 17.2429 23.625 16.3125V15.4187ZM28.0209 17.0302L30.375 17.7092V18.5625C30.375 19.8034 29.3659 20.8125 28.125 20.8125C27.0523 20.8125 26.1563 20.0571 25.9318 19.0513C26.9511 18.8207 27.7537 18.0349 28.0209 17.0302ZM28.125 15.8895V14.7572C28.7196 14.2796 29.1898 13.6547 29.4812 12.9375H29.8125C30.2243 12.9375 30.6051 12.8182 30.9375 12.6248V16.7006L28.125 15.8895ZM29.8125 11.25V9.5625C30.4329 9.5625 30.9375 10.0671 30.9375 10.6875C30.9375 11.3079 30.4329 11.8125 29.8125 11.8125H29.7737C29.7967 11.628 29.8125 11.4407 29.8125 11.25ZM25.3125 1.6875C28.4141 1.6875 30.9375 4.21088 30.9375 7.3125V8.75025C30.6051 8.55675 30.2243 8.4375 29.8125 8.4375H29.709C29.4761 7.78444 28.8574 7.3125 28.125 7.3125H22.5C21.7676 7.3125 21.1489 7.78444 20.916 8.4375H20.8125C20.4007 8.4375 20.0199 8.55675 19.6875 8.75025V7.3125C19.6875 4.21088 22.2109 1.6875 25.3125 1.6875ZM20.8513 11.8125H20.8125C20.1921 11.8125 19.6875 11.3079 19.6875 10.6875C19.6875 10.0671 20.1921 9.5625 20.8125 9.5625V11.25C20.8125 11.4407 20.8283 11.628 20.8513 11.8125ZM19.6875 12.6248C20.0199 12.8182 20.4007 12.9375 20.8125 12.9375H21.1438C21.4352 13.6547 21.9054 14.2796 22.5 14.7572V15.8895L19.6875 16.7006V12.6248ZM18.3454 18.2587L19.125 18.0338V18.5625C19.125 20.4238 20.6387 21.9375 22.5 21.9375C23.6734 21.9375 24.7073 21.3351 25.3125 20.4244C25.9177 21.3356 26.9516 21.9375 28.125 21.9375C29.9863 21.9375 31.5 20.4238 31.5 18.5625V18.0338L32.2796 18.2587C33.4766 18.6041 34.3125 19.7156 34.3125 20.961V23.0625H17.1248C17.3183 22.7301 17.4375 22.3493 17.4375 21.9375V18.7144C17.7097 18.5091 18.0135 18.3544 18.3454 18.2587ZM10.6875 11.8125C13.7891 11.8125 16.3125 14.3359 16.3125 17.4375V20.0002C15.9801 19.8067 15.5992 19.6875 15.1875 19.6875V18.5625H14.625C12.9324 18.5625 11.2545 18.0034 9.9 16.9875L9.42412 16.6303L8.9055 17.4088C8.424 18.1311 7.61794 18.5625 6.75 18.5625H6.1875V19.6875C5.77575 19.6875 5.39494 19.8067 5.0625 20.0002V17.4375C5.0625 14.3359 7.58588 11.8125 10.6875 11.8125ZM6.1875 23.0625C5.56706 23.0625 5.0625 22.5579 5.0625 21.9375C5.0625 21.3171 5.56706 20.8125 6.1875 20.8125V22.5C6.1875 22.6907 6.20325 22.878 6.22631 23.0625H6.1875ZM7.3125 22.5V19.6453C8.26144 19.5007 9.11925 18.9945 9.70537 18.2239C11.0036 19.0693 12.5168 19.5716 14.0625 19.6695V22.5C14.0625 24.3613 12.5488 25.875 10.6875 25.875C8.82619 25.875 7.3125 24.3613 7.3125 22.5ZM8.27437 28.1947L9.80437 29.7253L7.74281 31.0995L7.36538 28.4569L8.27437 28.1947ZM12.1674 31.4747L11.1898 32.4523L11.6544 34.3125H9.72056L10.1858 32.4523L9.20813 31.4747L10.6875 30.4886L12.1674 31.4747ZM1.6875 32.211C1.6875 30.9656 2.52337 29.8547 3.72037 29.5087L6.27413 28.7719L6.88163 33.0255L8.253 32.1114L8.93925 32.7977L8.56069 34.3125H1.6875V32.211ZM19.6875 28.125C19.6875 27.8145 19.9401 27.5625 20.25 27.5625H29.4829L30.9375 26.1079L32.3921 27.5625H33.75C34.0599 27.5625 34.3125 27.8145 34.3125 28.125V33.75C34.3125 34.0605 34.0599 34.3125 33.75 34.3125H20.25C19.9401 34.3125 19.6875 34.0605 19.6875 33.75V28.125ZM18.5625 29.9649V33.75C18.5625 33.948 18.603 34.1359 18.666 34.3125H12.8143L12.4358 32.7977L13.122 32.1114L14.4934 33.0255L15.1009 28.7719L17.6552 29.5087C17.9865 29.6044 18.2897 29.7591 18.5625 29.9649ZM14.0096 28.4569L13.6322 31.0995L11.5706 29.7253L13.1006 28.1947L14.0096 28.4569ZM12.375 27.3296L10.6875 29.0171L9 27.3296V26.6687C9.52144 26.8807 10.0907 27 10.6875 27C11.2843 27 11.8536 26.8807 12.375 26.6687V27.3296Z" fill="#4F4C4C"/>
<path d="M2.25 9.5625H3.14212L5.0625 11.4829L6.98287 9.5625H15.75C16.6804 9.5625 17.4375 8.80538 17.4375 7.875V2.25C17.4375 1.31962 16.6804 0.5625 15.75 0.5625H2.25C1.31962 0.5625 0.5625 1.31962 0.5625 2.25V7.875C0.5625 8.80538 1.31962 9.5625 2.25 9.5625ZM1.6875 2.25C1.6875 1.9395 1.94006 1.6875 2.25 1.6875H15.75C16.0599 1.6875 16.3125 1.9395 16.3125 2.25V7.875C16.3125 8.1855 16.0599 8.4375 15.75 8.4375H6.51713L5.0625 9.89213L3.60788 8.4375H2.25C1.94006 8.4375 1.6875 8.1855 1.6875 7.875V2.25Z" fill="#4F4C4C"/>
<path d="M4.5 6.75C5.43038 6.75 6.1875 5.99288 6.1875 5.0625C6.1875 4.13212 5.43038 3.375 4.5 3.375C3.56962 3.375 2.8125 4.13212 2.8125 5.0625C2.8125 5.99288 3.56962 6.75 4.5 6.75ZM4.5 4.5C4.80994 4.5 5.0625 4.752 5.0625 5.0625C5.0625 5.373 4.80994 5.625 4.5 5.625C4.19006 5.625 3.9375 5.373 3.9375 5.0625C3.9375 4.752 4.19006 4.5 4.5 4.5Z" fill="#4F4C4C"/>
<path d="M9 6.75C9.93038 6.75 10.6875 5.99288 10.6875 5.0625C10.6875 4.13212 9.93038 3.375 9 3.375C8.06962 3.375 7.3125 4.13212 7.3125 5.0625C7.3125 5.99288 8.06962 6.75 9 6.75ZM9 4.5C9.30994 4.5 9.5625 4.752 9.5625 5.0625C9.5625 5.373 9.30994 5.625 9 5.625C8.69006 5.625 8.4375 5.373 8.4375 5.0625C8.4375 4.752 8.69006 4.5 9 4.5Z" fill="#4F4C4C"/>
<path d="M13.5 6.75C14.4304 6.75 15.1875 5.99288 15.1875 5.0625C15.1875 4.13212 14.4304 3.375 13.5 3.375C12.5696 3.375 11.8125 4.13212 11.8125 5.0625C11.8125 5.99288 12.5696 6.75 13.5 6.75ZM13.5 4.5C13.8099 4.5 14.0625 4.752 14.0625 5.0625C14.0625 5.373 13.8099 5.625 13.5 5.625C13.1901 5.625 12.9375 5.373 12.9375 5.0625C12.9375 4.752 13.1901 4.5 13.5 4.5Z" fill="#4F4C4C"/>
</svg>
