<svg width="25" height="19" viewBox="0 0 25 19" fill="none" xmlns="http://www.w3.org/2000/svg">
<path fill-rule="evenodd" clip-rule="evenodd" d="M24.7475 12.7765C24.5795 12.2592 24.2882 11.7852 23.8828 11.3565C23.4582 10.9085 22.9002 10.5618 22.2082 10.3112C21.5155 10.0625 20.6262 9.93649 19.5302 9.93649H18.0428C18.2202 8.10582 18.8722 6.54782 20.0002 5.25982C21.1262 3.97582 22.6875 2.84582 24.6835 1.87649L23.4728 0.000488281C20.8448 1.11982 18.5962 2.75715 16.7282 4.91982C14.8608 7.08449 13.9308 9.22915 13.9308 11.3565C13.9308 13.6418 14.4702 15.4345 15.5575 16.7285C16.6448 18.0225 18.2022 18.6672 20.2268 18.6672C21.5115 18.6672 22.6275 18.2385 23.5768 17.3818C24.5248 16.5265 25.0002 15.5245 25.0002 14.3818C25.0002 13.8305 24.9168 13.2938 24.7475 12.7765ZM11.1502 12.7765C10.9808 12.2592 10.6902 11.7852 10.2842 11.3565C9.86083 10.9085 9.30216 10.5618 8.6095 10.3112C7.91816 10.0625 7.02884 9.93649 5.93217 9.93649H4.44417C4.62217 8.10582 5.2735 6.54782 6.40084 5.25982C7.52751 3.97582 9.09017 2.84582 11.0848 1.87649L9.87484 0.000488281C7.24617 1.11982 4.99883 2.75715 3.13017 4.91982C1.26283 7.08449 0.333496 9.22915 0.333496 11.3565C0.333496 13.6418 0.871493 15.4345 1.95949 16.7285C3.04549 18.0225 4.60285 18.6672 6.62885 18.6672C7.91285 18.6672 9.03016 18.2385 9.97949 17.3818C10.9275 16.5265 11.4022 15.5245 11.4022 14.3818C11.4022 13.8305 11.3175 13.2938 11.1502 12.7765Z" fill="#4F4C4C"/>
</svg>
